<mxfile host="65bd71144e">
    <diagram id="8QzEBr8Oi5acE4tV4SWJ" name="trie">
        <mxGraphModel grid="1" gridSize="10" guides="1" tooltips="1" connect="1" arrows="1" page="1" fold="1" pageScale="1" pageWidth="1169" pageHeight="827" math="0" shadow="0">
            <root>
                <mxCell id="0"/>
                <mxCell id="1" parent="0"/>
                <mxCell id="17" style="edgeStyle=orthogonalEdgeStyle;rounded=0;orthogonalLoop=1;jettySize=auto;html=1;exitX=0.5;exitY=1;exitDx=0;exitDy=0;curved=1;strokeColor=#FF6392;fontColor=#5AA9E6;" edge="1" parent="1" source="3" target="4">
                    <mxGeometry relative="1" as="geometry"/>
                </mxCell>
                <mxCell id="3" value="H" style="whiteSpace=wrap;html=1;aspect=fixed;fillColor=#FFE45E;strokeColor=#FF6392;fontColor=#5AA9E6;" parent="1" vertex="1">
                    <mxGeometry x="575" y="170" width="40" height="40" as="geometry"/>
                </mxCell>
                <mxCell id="18" style="edgeStyle=orthogonalEdgeStyle;curved=1;rounded=0;orthogonalLoop=1;jettySize=auto;html=1;exitX=0.5;exitY=1;exitDx=0;exitDy=0;entryX=0.5;entryY=0;entryDx=0;entryDy=0;strokeColor=#FF6392;fontColor=#5AA9E6;" edge="1" parent="1" source="4" target="7">
                    <mxGeometry relative="1" as="geometry"/>
                </mxCell>
                <mxCell id="4" value="A" style="whiteSpace=wrap;html=1;aspect=fixed;fillColor=#FFE45E;strokeColor=#FF6392;fontColor=#5AA9E6;" parent="1" vertex="1">
                    <mxGeometry x="535" y="250" width="40" height="40" as="geometry"/>
                </mxCell>
                <mxCell id="19" style="edgeStyle=orthogonalEdgeStyle;curved=1;rounded=0;orthogonalLoop=1;jettySize=auto;html=1;exitX=0.5;exitY=1;exitDx=0;exitDy=0;entryX=0.5;entryY=0;entryDx=0;entryDy=0;strokeColor=#FF6392;fontColor=#5AA9E6;" edge="1" parent="1" source="5" target="11">
                    <mxGeometry relative="1" as="geometry"/>
                </mxCell>
                <mxCell id="5" value="E" style="whiteSpace=wrap;html=1;aspect=fixed;fillColor=#FFE45E;strokeColor=#FF6392;fontColor=#5AA9E6;" parent="1" vertex="1">
                    <mxGeometry x="575" y="250" width="40" height="40" as="geometry"/>
                </mxCell>
                <mxCell id="20" style="edgeStyle=orthogonalEdgeStyle;curved=1;rounded=0;orthogonalLoop=1;jettySize=auto;html=1;exitX=0.5;exitY=1;exitDx=0;exitDy=0;entryX=0.5;entryY=0;entryDx=0;entryDy=0;strokeColor=#FF6392;fontColor=#5AA9E6;" edge="1" parent="1" source="7" target="13">
                    <mxGeometry relative="1" as="geometry"/>
                </mxCell>
                <mxCell id="7" value="T" style="whiteSpace=wrap;html=1;aspect=fixed;fillColor=#FFE45E;strokeColor=#FF6392;fontColor=#5AA9E6;" parent="1" vertex="1">
                    <mxGeometry x="495" y="330" width="40" height="40" as="geometry"/>
                </mxCell>
                <mxCell id="21" style="edgeStyle=orthogonalEdgeStyle;curved=1;rounded=0;orthogonalLoop=1;jettySize=auto;html=1;exitX=0.5;exitY=1;exitDx=0;exitDy=0;entryX=0.5;entryY=0;entryDx=0;entryDy=0;strokeColor=#FF6392;fontColor=#5AA9E6;" edge="1" parent="1" source="8" target="14">
                    <mxGeometry relative="1" as="geometry"/>
                </mxCell>
                <mxCell id="8" value="V" style="whiteSpace=wrap;html=1;aspect=fixed;fillColor=#FFE45E;strokeColor=#FF6392;fontColor=#5AA9E6;" parent="1" vertex="1">
                    <mxGeometry x="535" y="330" width="40" height="40" as="geometry"/>
                </mxCell>
                <mxCell id="24" style="edgeStyle=orthogonalEdgeStyle;curved=1;rounded=0;orthogonalLoop=1;jettySize=auto;html=1;exitX=0.5;exitY=1;exitDx=0;exitDy=0;entryX=0.5;entryY=0;entryDx=0;entryDy=0;strokeColor=#FF6392;fontColor=#5AA9E6;" edge="1" parent="1" source="9" target="10">
                    <mxGeometry relative="1" as="geometry"/>
                </mxCell>
                <mxCell id="9" value="L" style="whiteSpace=wrap;html=1;aspect=fixed;fillColor=#FFE45E;strokeColor=#FF6392;fontColor=#5AA9E6;" parent="1" vertex="1">
                    <mxGeometry x="615" y="410" width="40" height="40" as="geometry"/>
                </mxCell>
                <mxCell id="25" style="edgeStyle=orthogonalEdgeStyle;curved=1;rounded=0;orthogonalLoop=1;jettySize=auto;html=1;exitX=0.5;exitY=1;exitDx=0;exitDy=0;entryX=0.5;entryY=0;entryDx=0;entryDy=0;strokeColor=#FF6392;fontColor=#5AA9E6;" edge="1" parent="1" source="10" target="12">
                    <mxGeometry relative="1" as="geometry"/>
                </mxCell>
                <mxCell id="10" value="O" style="whiteSpace=wrap;html=1;aspect=fixed;fillColor=#FFE45E;strokeColor=#FF6392;fontColor=#5AA9E6;" parent="1" vertex="1">
                    <mxGeometry x="615" y="490" width="40" height="40" as="geometry"/>
                </mxCell>
                <mxCell id="22" style="edgeStyle=orthogonalEdgeStyle;curved=1;rounded=0;orthogonalLoop=1;jettySize=auto;html=1;exitX=0.5;exitY=1;exitDx=0;exitDy=0;entryX=0.5;entryY=0;entryDx=0;entryDy=0;strokeColor=#FF6392;fontColor=#5AA9E6;" edge="1" parent="1" source="11" target="9">
                    <mxGeometry relative="1" as="geometry"/>
                </mxCell>
                <mxCell id="11" value="L" style="whiteSpace=wrap;html=1;aspect=fixed;fillColor=#FFE45E;strokeColor=#FF6392;fontColor=#5AA9E6;" parent="1" vertex="1">
                    <mxGeometry x="615" y="330" width="40" height="40" as="geometry"/>
                </mxCell>
                <mxCell id="12" value="&lt;font color=&quot;#ff0000&quot;&gt;¤&lt;/font&gt;" style="whiteSpace=wrap;html=1;aspect=fixed;fillColor=#FFE45E;strokeColor=#FF6392;fontColor=#5AA9E6;" parent="1" vertex="1">
                    <mxGeometry x="615" y="570" width="40" height="40" as="geometry"/>
                </mxCell>
                <mxCell id="13" value="&lt;font color=&quot;#ff0000&quot;&gt;¤&lt;/font&gt;" style="whiteSpace=wrap;html=1;aspect=fixed;fillColor=#FFE45E;strokeColor=#FF6392;fontColor=#5AA9E6;" parent="1" vertex="1">
                    <mxGeometry x="455" y="410" width="40" height="40" as="geometry"/>
                </mxCell>
                <mxCell id="23" style="edgeStyle=orthogonalEdgeStyle;curved=1;rounded=0;orthogonalLoop=1;jettySize=auto;html=1;exitX=0.5;exitY=1;exitDx=0;exitDy=0;entryX=0.5;entryY=0;entryDx=0;entryDy=0;strokeColor=#FF6392;fontColor=#5AA9E6;" edge="1" parent="1" source="14" target="15">
                    <mxGeometry relative="1" as="geometry"/>
                </mxCell>
                <mxCell id="14" value="E" style="whiteSpace=wrap;html=1;aspect=fixed;fillColor=#FFE45E;strokeColor=#FF6392;fontColor=#5AA9E6;" parent="1" vertex="1">
                    <mxGeometry x="535" y="410" width="40" height="40" as="geometry"/>
                </mxCell>
                <mxCell id="15" value="&lt;font color=&quot;#ff0000&quot;&gt;¤&lt;/font&gt;" style="whiteSpace=wrap;html=1;aspect=fixed;fillColor=#FFE45E;strokeColor=#FF6392;fontColor=#5AA9E6;" parent="1" vertex="1">
                    <mxGeometry x="535" y="490" width="40" height="40" as="geometry"/>
                </mxCell>
                <mxCell id="16" value="&lt;font style=&quot;font-size: 20px&quot;&gt;Keys: HELLO HAT HAVE&lt;/font&gt;" style="text;html=1;align=center;verticalAlign=middle;resizable=0;points=[];autosize=1;strokeColor=none;fontColor=#5AA9E6;" vertex="1" parent="1">
                    <mxGeometry x="475" y="110" width="240" height="20" as="geometry"/>
                </mxCell>
            </root>
        </mxGraphModel>
    </diagram>
    <diagram name="radix tree" id="Ir_SwzwIH1pRrlVCv00L">
        <mxGraphModel dx="785" dy="457" grid="1" gridSize="10" guides="1" tooltips="1" connect="1" arrows="1" fold="1" page="1" pageScale="1" pageWidth="1169" pageHeight="827" math="0" shadow="0">
            <root>
                <mxCell id="2_50EFkzS4RmKLeFmvxF-0"/>
                <mxCell id="2_50EFkzS4RmKLeFmvxF-1" parent="2_50EFkzS4RmKLeFmvxF-0"/>
                <mxCell id="2_50EFkzS4RmKLeFmvxF-2" style="edgeStyle=orthogonalEdgeStyle;rounded=0;orthogonalLoop=1;jettySize=auto;html=1;exitX=0.5;exitY=1;exitDx=0;exitDy=0;curved=1;strokeColor=#FF6392;fontColor=#5AA9E6;" edge="1" parent="2_50EFkzS4RmKLeFmvxF-1" source="2_50EFkzS4RmKLeFmvxF-3" target="2_50EFkzS4RmKLeFmvxF-5">
                    <mxGeometry relative="1" as="geometry"/>
                </mxCell>
                <mxCell id="2_50EFkzS4RmKLeFmvxF-3" value="H" style="whiteSpace=wrap;html=1;aspect=fixed;fillColor=#FFE45E;strokeColor=#FF6392;fontColor=#5AA9E6;" vertex="1" parent="2_50EFkzS4RmKLeFmvxF-1">
                    <mxGeometry x="575" y="170" width="40" height="40" as="geometry"/>
                </mxCell>
                <mxCell id="2_50EFkzS4RmKLeFmvxF-4" style="edgeStyle=orthogonalEdgeStyle;curved=1;rounded=0;orthogonalLoop=1;jettySize=auto;html=1;exitX=0.5;exitY=1;exitDx=0;exitDy=0;entryX=0.5;entryY=0;entryDx=0;entryDy=0;strokeColor=#FF6392;fontColor=#5AA9E6;" edge="1" parent="2_50EFkzS4RmKLeFmvxF-1" source="2_50EFkzS4RmKLeFmvxF-5" target="2_50EFkzS4RmKLeFmvxF-9">
                    <mxGeometry relative="1" as="geometry"/>
                </mxCell>
                <mxCell id="2_50EFkzS4RmKLeFmvxF-5" value="A" style="whiteSpace=wrap;html=1;aspect=fixed;fillColor=#FFE45E;strokeColor=#FF6392;fontColor=#5AA9E6;" vertex="1" parent="2_50EFkzS4RmKLeFmvxF-1">
                    <mxGeometry x="535" y="250" width="40" height="40" as="geometry"/>
                </mxCell>
                <mxCell id="2_50EFkzS4RmKLeFmvxF-24" style="edgeStyle=orthogonalEdgeStyle;curved=0;rounded=1;sketch=0;orthogonalLoop=1;jettySize=auto;html=1;exitX=1;exitY=0.5;exitDx=0;exitDy=0;entryX=0;entryY=0.5;entryDx=0;entryDy=0;fontColor=#5AA9E6;strokeColor=#FF6392;fillColor=#FFE45E;" edge="1" parent="2_50EFkzS4RmKLeFmvxF-1" source="2_50EFkzS4RmKLeFmvxF-7" target="2_50EFkzS4RmKLeFmvxF-18">
                    <mxGeometry relative="1" as="geometry"/>
                </mxCell>
                <mxCell id="2_50EFkzS4RmKLeFmvxF-7" value="ELLO" style="whiteSpace=wrap;html=1;aspect=fixed;fillColor=#FFE45E;strokeColor=#FF6392;fontColor=#5AA9E6;" vertex="1" parent="2_50EFkzS4RmKLeFmvxF-1">
                    <mxGeometry x="575" y="250" width="40" height="40" as="geometry"/>
                </mxCell>
                <mxCell id="2_50EFkzS4RmKLeFmvxF-8" style="edgeStyle=orthogonalEdgeStyle;curved=1;rounded=0;orthogonalLoop=1;jettySize=auto;html=1;exitX=0.5;exitY=1;exitDx=0;exitDy=0;entryX=0.5;entryY=0;entryDx=0;entryDy=0;strokeColor=#FF6392;fontColor=#5AA9E6;" edge="1" parent="2_50EFkzS4RmKLeFmvxF-1" source="2_50EFkzS4RmKLeFmvxF-9" target="2_50EFkzS4RmKLeFmvxF-19">
                    <mxGeometry relative="1" as="geometry"/>
                </mxCell>
                <mxCell id="2_50EFkzS4RmKLeFmvxF-9" value="T" style="whiteSpace=wrap;html=1;aspect=fixed;fillColor=#FFE45E;strokeColor=#FF6392;fontColor=#5AA9E6;" vertex="1" parent="2_50EFkzS4RmKLeFmvxF-1">
                    <mxGeometry x="495" y="330" width="40" height="40" as="geometry"/>
                </mxCell>
                <mxCell id="2_50EFkzS4RmKLeFmvxF-25" style="edgeStyle=orthogonalEdgeStyle;curved=0;rounded=1;sketch=0;orthogonalLoop=1;jettySize=auto;html=1;exitX=1;exitY=0.5;exitDx=0;exitDy=0;entryX=0;entryY=0.5;entryDx=0;entryDy=0;fontColor=#5AA9E6;strokeColor=#FF6392;fillColor=#FFE45E;" edge="1" parent="2_50EFkzS4RmKLeFmvxF-1" source="2_50EFkzS4RmKLeFmvxF-11" target="2_50EFkzS4RmKLeFmvxF-22">
                    <mxGeometry relative="1" as="geometry"/>
                </mxCell>
                <mxCell id="2_50EFkzS4RmKLeFmvxF-11" value="VE" style="whiteSpace=wrap;html=1;aspect=fixed;fillColor=#FFE45E;strokeColor=#FF6392;fontColor=#5AA9E6;" vertex="1" parent="2_50EFkzS4RmKLeFmvxF-1">
                    <mxGeometry x="535" y="330" width="40" height="40" as="geometry"/>
                </mxCell>
                <mxCell id="2_50EFkzS4RmKLeFmvxF-18" value="&lt;font color=&quot;#ff0000&quot;&gt;¤&lt;/font&gt;" style="whiteSpace=wrap;html=1;aspect=fixed;fillColor=#FFE45E;strokeColor=#FF6392;fontColor=#5AA9E6;" vertex="1" parent="2_50EFkzS4RmKLeFmvxF-1">
                    <mxGeometry x="640" y="250" width="40" height="40" as="geometry"/>
                </mxCell>
                <mxCell id="2_50EFkzS4RmKLeFmvxF-19" value="&lt;font color=&quot;#ff0000&quot;&gt;¤&lt;/font&gt;" style="whiteSpace=wrap;html=1;aspect=fixed;fillColor=#FFE45E;strokeColor=#FF6392;fontColor=#5AA9E6;" vertex="1" parent="2_50EFkzS4RmKLeFmvxF-1">
                    <mxGeometry x="495" y="400" width="40" height="40" as="geometry"/>
                </mxCell>
                <mxCell id="2_50EFkzS4RmKLeFmvxF-22" value="&lt;font color=&quot;#ff0000&quot;&gt;¤&lt;/font&gt;" style="whiteSpace=wrap;html=1;aspect=fixed;fillColor=#FFE45E;strokeColor=#FF6392;fontColor=#5AA9E6;" vertex="1" parent="2_50EFkzS4RmKLeFmvxF-1">
                    <mxGeometry x="600" y="330" width="40" height="40" as="geometry"/>
                </mxCell>
                <mxCell id="2_50EFkzS4RmKLeFmvxF-23" value="&lt;font style=&quot;font-size: 20px&quot;&gt;Keys: HELLO HAT HAVE&lt;/font&gt;" style="text;html=1;align=center;verticalAlign=middle;resizable=0;points=[];autosize=1;strokeColor=none;fontColor=#5AA9E6;" vertex="1" parent="2_50EFkzS4RmKLeFmvxF-1">
                    <mxGeometry x="475" y="110" width="240" height="20" as="geometry"/>
                </mxCell>
            </root>
        </mxGraphModel>
    </diagram>
</mxfile>
